<svg xmlns="http://www.w3.org/2000/svg" viewBox="0 0 1708.46 1400.54"><defs><style>.cls-1{fill:#e7f3fe;}.cls-2{fill:#a8ccff;}.cls-20,.cls-3{fill:#fff;}.cls-3{opacity:0.6;}.cls-4{fill:#5c9cf4;}.cls-5{fill:#dae6ff;}.cls-6{fill:#c8dffd;}.cls-6,.cls-7{opacity:0.5;}.cls-7{fill:#7798f8;}.cls-8{opacity:0.3;}.cls-9{fill:#b8d0fc;}.cls-10{fill:#1e3865;}.cls-11{fill:#25468f;}.cls-12{fill:#ff912b;}.cls-13{fill:#ffebd8;}.cls-14{fill:#448de8;}.cls-15{fill:#f9d0b3;}.cls-16{fill:#478be0;}.cls-17{fill:#9cc3f8;}.cls-18{fill:#fc7600;}.cls-19{fill:#89b4fd;}.cls-21{fill:#ffae73;}.cls-22{fill:#f9924f;}.cls-23{fill:#fddbba;}.cls-24{fill:#f8caa4;}.cls-25{fill:#d44b40;}.cls-26{fill:#f37168;}.cls-27{fill:#2a3967;}.cls-28{fill:#f99352;}.cls-29{fill:#d54a41;}.cls-30{fill:#0d458e;}.cls-31{fill:#f1ddcb;}.cls-32{fill:#0b3563;}</style></defs><g id="Capa_2" data-name="Capa 2"><g id="Слой_1" data-name="Слой 1"><path class="cls-1" d="M309.67,74.46C540.48-61.61,775.06,58.69,934.17,320.69s493-180.84,670.08,80.74c120.85,178.51,65.5,637.48-100.21,836.27-225.24,270.2-910.2,133.1-1058.37,87.11C275,1271.84,150.17,1111.11,99.46,916-22.71,446,207.67,134.59,309.67,74.46Z"/><path class="cls-2" d="M255.58,1146.55l-4.16-2.28a9.19,9.19,0,0,1-3.65-12.47l19.12-34.92a9.2,9.2,0,0,1,12.47-3.64l6,3.26a1.8,1.8,0,1,1-1.73,3.16l-6-3.27a5.59,5.59,0,0,0-7.58,2.22l-19.13,34.92a5.6,5.6,0,0,0,2.22,7.59l4.16,2.28a5.6,5.6,0,0,0,7.59-2.22l12.7-23.18a1.79,1.79,0,1,1,3.15,1.72l-12.69,23.19A9.2,9.2,0,0,1,255.58,1146.55Z"/><path class="cls-2" d="M237.84,1183.22l-7.46-4.09c-6.93-3.79-9.26-12.91-5.2-20.33l28.75-52.5a1.79,1.79,0,1,1,3.15,1.72l-28.74,52.5c-3.11,5.69-1.42,12.62,3.76,15.46l7.46,4.09c5.19,2.84,11.94.53,15.06-5.16l32.74-59.8c3.11-5.68,1.42-12.61-3.77-15.45a1.8,1.8,0,0,1,1.73-3.16c6.93,3.79,9.26,12.92,5.19,20.34l-32.74,59.8C253.71,1184.06,244.76,1187,237.84,1183.22Z"/><rect class="cls-3" y="102.18" width="997.31" height="850.16" rx="47.87"/><path class="cls-4" d="M35.74,102.18H961.57a35.74,35.74,0,0,1,35.74,35.74v58.6a0,0,0,0,1,0,0H0a0,0,0,0,1,0,0v-58.6A35.74,35.74,0,0,1,35.74,102.18Z"/><path class="cls-5" d="M40.33,148.78a11.28,11.28,0,1,1,11.28,11.28A11.28,11.28,0,0,1,40.33,148.78Z"/><path class="cls-5" d="M87.67,148.78A11.28,11.28,0,1,1,99,160.06,11.28,11.28,0,0,1,87.67,148.78Z"/><path class="cls-5" d="M135,148.78a11.28,11.28,0,1,1,11.28,11.28A11.28,11.28,0,0,1,135,148.78Z"/><rect class="cls-6" x="79.04" y="271.37" width="282.71" height="282.71"/><path class="cls-7" d="M663.48,292.45H438.61a10.69,10.69,0,0,1-10.68-10.69h0a10.68,10.68,0,0,1,10.68-10.68H663.48a10.68,10.68,0,0,1,10.68,10.68h0A10.69,10.69,0,0,1,663.48,292.45Z"/><path class="cls-7" d="M932.38,278.12H707.51a10.69,10.69,0,0,1-10.68-10.69h0a10.68,10.68,0,0,1,10.68-10.68H932.38a10.69,10.69,0,0,1,10.69,10.68h0A10.7,10.7,0,0,1,932.38,278.12Z"/><g class="cls-8"><path class="cls-9" d="M708,374.69H434.85a6.92,6.92,0,0,1-6.92-6.92h0a6.92,6.92,0,0,1,6.92-6.93H708a6.93,6.93,0,0,1,6.93,6.93h0A6.92,6.92,0,0,1,708,374.69Z"/><path class="cls-9" d="M811.83,374.69h-72.1a6.92,6.92,0,0,1-6.93-6.92h0a6.93,6.93,0,0,1,6.93-6.93h72.1a6.92,6.92,0,0,1,6.92,6.93h0A6.92,6.92,0,0,1,811.83,374.69Z"/><path class="cls-9" d="M537.91,417.64H434.85a6.92,6.92,0,0,1-6.92-6.92h0a6.92,6.92,0,0,1,6.92-6.93H537.91a6.93,6.93,0,0,1,6.93,6.93h0A6.92,6.92,0,0,1,537.91,417.64Z"/><path class="cls-9" d="M704.84,417.64H563.62a6.92,6.92,0,0,1-6.93-6.92h0a6.93,6.93,0,0,1,6.93-6.93H704.84a6.92,6.92,0,0,1,6.92,6.93h0A6.92,6.92,0,0,1,704.84,417.64Z"/><path class="cls-9" d="M811.83,417.64h-72.1a6.92,6.92,0,0,1-6.93-6.92h0a6.93,6.93,0,0,1,6.93-6.93h72.1a6.92,6.92,0,0,1,6.92,6.93h0A6.92,6.92,0,0,1,811.83,417.64Z"/><path class="cls-9" d="M574.69,454.78H434.85a6.92,6.92,0,0,1-6.92-6.93h0a6.92,6.92,0,0,1,6.92-6.92H574.69a6.92,6.92,0,0,1,6.93,6.92h0A6.93,6.93,0,0,1,574.69,454.78Z"/><path class="cls-9" d="M841.73,454.78H613a6.93,6.93,0,0,1-6.93-6.93h0a6.92,6.92,0,0,1,6.93-6.92H841.73a6.92,6.92,0,0,1,6.92,6.92h0A6.92,6.92,0,0,1,841.73,454.78Z"/></g><g class="cls-8"><path class="cls-9" d="M708,511.13H434.85a6.92,6.92,0,0,1-6.92-6.92h0a6.92,6.92,0,0,1,6.92-6.93H708a6.93,6.93,0,0,1,6.93,6.93h0A6.92,6.92,0,0,1,708,511.13Z"/><path class="cls-9" d="M811.83,511.13h-72.1a6.92,6.92,0,0,1-6.93-6.92h0a6.93,6.93,0,0,1,6.93-6.93h72.1a6.92,6.92,0,0,1,6.92,6.93h0A6.92,6.92,0,0,1,811.83,511.13Z"/><path class="cls-9" d="M537.91,554.08H434.85a6.92,6.92,0,0,1-6.92-6.93h0a6.92,6.92,0,0,1,6.92-6.92H537.91a6.92,6.92,0,0,1,6.93,6.92h0A6.93,6.93,0,0,1,537.91,554.08Z"/><path class="cls-9" d="M704.84,554.08H563.62a6.93,6.93,0,0,1-6.93-6.93h0a6.92,6.92,0,0,1,6.93-6.92H704.84a6.92,6.92,0,0,1,6.92,6.92h0A6.92,6.92,0,0,1,704.84,554.08Z"/></g><path class="cls-9" d="M205.79,313.51H235l78.88,180.56h-33.3l-18.18-43.28H177.62l-18.44,43.28H126.91Zm45.08,109.36-31-71.71-30.74,71.71Z"/><path class="cls-9" d="M353.32,628.28h-86.9a6.58,6.58,0,0,1-6.58-6.58h0a6.59,6.59,0,0,1,6.58-6.58h86.9a6.59,6.59,0,0,1,6.58,6.58h0A6.58,6.58,0,0,1,353.32,628.28Z"/><path class="cls-9" d="M324,651.49H266.42a6.59,6.59,0,0,1-6.58-6.58h0a6.59,6.59,0,0,1,6.58-6.59H324a6.59,6.59,0,0,1,6.59,6.59h0A6.59,6.59,0,0,1,324,651.49Z"/><path class="cls-9" d="M353.32,785.92h-86.9a6.59,6.59,0,0,1-6.58-6.59h0a6.59,6.59,0,0,1,6.58-6.58h86.9a6.59,6.59,0,0,1,6.58,6.58h0A6.59,6.59,0,0,1,353.32,785.92Z"/><path class="cls-9" d="M324,809.12H266.42a6.58,6.58,0,0,1-6.58-6.58h0a6.59,6.59,0,0,1,6.58-6.58H324a6.59,6.59,0,0,1,6.59,6.58h0A6.58,6.58,0,0,1,324,809.12Z"/><path class="cls-10" d="M1007.38,179.17s4.11,49-7.06,48.28-33.21-22.32-77.71-18.81-98.94,13.24-131.86-45,42.1-75,42.1-75l174.53,90.53Z"/><polygon class="cls-11" points="912.79 175.58 1137.01 194.02 1141.67 184.05 926.71 25.37 709.56 0 705.39 8.93 912.79 175.58 912.79 175.58"/><path class="cls-12" d="M1065.38,344.44a8.69,8.69,0,1,0-6,10.76,8.7,8.7,0,0,0,6-10.76Z"/><path class="cls-12" d="M1057.9,346.86c9-.7,11.1,81.13,11.1,81.13s-5.86,2.76-8.75,2.11-4.35-11.7-4.35-11.7l-.28,11.58s-9.86.35-13.28-2.05c0,0,1.34-80,15.56-81.07Z"/><polygon class="cls-12" points="1060.84 348.7 1059.21 169.92 1058.05 169.06 940.93 82.42 936.73 88.11 1052.68 173.88 1055.3 348.39 1060.84 348.7"/><path class="cls-13" d="M719.36,1005H1201a84.93,84.93,0,0,1,84.93,84.93v15.37a86.85,86.85,0,0,1-86.85,86.85H719.36a0,0,0,0,1,0,0V1005a0,0,0,0,1,0,0Z"/><path class="cls-4" d="M1708.46,1082v28.16a85.91,85.91,0,0,1-10.39,41.24c-13.27,24.37-38,40.75-66.22,40.75H704.19c-6.14,0-11.11-5.32-11.11-11.88v-4.22c0-6.56,5-11.88,11.11-11.88h565.5a77.78,77.78,0,0,0,7.93-12.77,80.32,80.32,0,0,0,8.29-35.78v-35.79a79.5,79.5,0,0,0-2.29-19,76.67,76.67,0,0,0-13.11-27.78H704.19c-6.14,0-11.11-5.33-11.11-11.9v-4.2c0-6.58,5-11.9,11.11-11.9h932.33c32.86,0,60.57,23.58,69.17,55.78A81.86,81.86,0,0,1,1708.46,1082Z"/><path class="cls-14" d="M1705.69,1060.78H1283.62a76.67,76.67,0,0,0-13.11-27.78H704.19c-6.14,0-11.11-5.33-11.11-11.9v-4.2c0-6.58,5-11.9,11.11-11.9h932.33C1669.38,1005,1697.09,1028.58,1705.69,1060.78Z"/><polygon class="cls-15" points="719.36 1098.58 788.05 1101.72 719.36 1103.62 719.36 1098.58"/><polygon class="cls-15" points="719.36 1127.94 882.78 1131.09 719.36 1132.98 719.36 1127.94"/><path class="cls-12" d="M577.53,1191.76H1062a68.91,68.91,0,0,1,68.91,68.91v12a64.71,64.71,0,0,1-64.71,64.71H577.53a0,0,0,0,1,0,0V1191.76a0,0,0,0,1,0,0Z" transform="translate(1708.46 2529.09) rotate(-180)"/><path class="cls-13" d="M1039.43,1191.76h551.75a67.56,67.56,0,0,1,67.56,67.56v12a66.06,66.06,0,0,1-66.06,66.06H1039.43a0,0,0,0,1,0,0V1191.76a0,0,0,0,1,0,0Z" transform="translate(2698.16 2529.09) rotate(-180)"/><rect class="cls-12" x="992.89" y="1315.56" width="694.58" height="21.77" rx="9.99" transform="translate(2680.35 2652.89) rotate(-180)"/><rect class="cls-12" x="992.89" y="1191.76" width="694.58" height="21.77" rx="9.99" transform="translate(2680.35 2405.29) rotate(180)"/><polygon class="cls-15" points="1658.74 1264.55 1583.65 1266.99 1658.74 1268.47 1658.74 1264.55"/><polygon class="cls-15" points="1658.74 1231.05 1480.11 1233.49 1658.74 1234.97 1658.74 1231.05"/><path class="cls-4" d="M1482,1233a33.75,33.75,0,0,1,10.18,16.53,27,27,0,0,1,.8,5.75c.42,13.66,0,44.58,0,44.58l22.6-15.46,22.54,15.46V1258c0-7.93-1.93-15.63-5.52-20.68-1.75-2.44-3.86-4.28-6.25-4.28Z"/><path class="cls-16" d="M1482,1233a33.75,33.75,0,0,1,10.18,16.53l45.3.61s-1.78-14.72-11.13-17.14Z"/><path class="cls-13" d="M595.07,791.52h464.32a89.81,89.81,0,0,1,89.81,89.81v32.23a91.84,91.84,0,0,1-91.84,91.84H595.07a0,0,0,0,1,0,0V791.52a0,0,0,0,1,0,0Z"/><path class="cls-2" d="M1149.47,874.51v46c-.12,19.66-9.23,36.71-22.62,45.83a39.55,39.55,0,0,1-22.3,7H580.49c-6.14,0-11.12,5.94-11.12,13.28v5.43c0,7.33,5,13.28,11.12,13.28H1485.8c26,0,48.93-15.42,62.8-39a103.64,103.64,0,0,0,13.88-52.54V877.51a99.68,99.68,0,0,0-7.15-37.4c-11.64-28.75-36.3-48.58-64.84-48.58h-910c-6.14,0-11.12,5.93-11.12,13.27v5.43c0,7.33,5,13.28,11.12,13.28h525.66c12.56,0,23.93,6.39,31.87,16.6A56.56,56.56,0,0,1,1149.47,874.51Z"/><path class="cls-17" d="M569.37,986.69v5.43c0,7.33,5,13.28,11.12,13.28H1485.8c26,0,48.93-15.42,62.8-39H1126.85a39.55,39.55,0,0,1-22.3,7H580.49C574.35,973.41,569.37,979.35,569.37,986.69Z"/><polygon class="cls-15" points="595.07 898.46 662.25 902.05 595.07 904.22 595.07 898.46"/><polygon class="cls-15" points="595.07 849.24 754.9 852.83 595.07 855 595.07 849.24"/><path class="cls-12" d="M753.26,852.12s-10.55,6.78-14,17.93a23.76,23.76,0,0,0-1.09,6.23c-.58,14.82,0,48.34,0,48.34L707,907.86l-31.06,16.76V879.18c0-8.59,2.66-16.94,7.61-22.42,2.4-2.65,5.31-4.64,8.61-4.64Z"/><path class="cls-18" d="M753.26,852.12s-10.55,6.78-14,17.93l-62.4.66s2.45-16,15.33-18.59Z"/><path class="cls-19" d="M1152.83,562.27c3.11-76.88-61.32-111-127.21-111S888.05,468.31,881.83,570.53c-4,65.76,31.06,106.23,132,106.23,34,0,60.5-5.37,80.77-15l50.46,44.84-24.8-62C1142.24,624.25,1151.49,595.44,1152.83,562.27Z"/><path class="cls-20" d="M949.33,548.93a26.37,26.37,0,0,1,6.44-.75c3.5,0,6.49.75,8.56,2.71a8.73,8.73,0,0,1,2.53,6.61,8.88,8.88,0,0,1-6,8.57v.17c4.49,1.21,7.19,4.83,7.19,9.89a11.09,11.09,0,0,1-2.76,7.7c-2.18,2.48-5.81,3.51-10.23,3.51a31.06,31.06,0,0,1-5.75-.4Zm4.37,15.87h2a6.66,6.66,0,0,0,6.73-6.84c0-3.57-1.67-6.33-6.39-6.33a7.89,7.89,0,0,0-2.35.29Zm0,18.8a9.9,9.9,0,0,0,2.24.23c4.54,0,7.53-2.7,7.53-7.7,0-5.35-3.68-7.88-7.82-7.94H953.7Z"/><path class="cls-20" d="M990.38,573.19c0,10.76-4.94,14.38-9.26,14.38-5,0-9-4.54-9-14.32,0-10.12,4.54-14.37,9.31-14.37C986.41,558.88,990.38,563.54,990.38,573.19Zm-13.86,0c0,4.61.81,10.87,4.83,10.87,3.8,0,4.6-6.49,4.6-10.87s-.8-10.8-4.71-10.8S976.52,568.94,976.52,573.19Z"/><path class="cls-20" d="M995.33,566.47c0-3.28-.18-5-.23-7.19H999l.23,3.39h.11a7.07,7.07,0,0,1,6.39-3.79c3.85,0,6.73,2.82,6.73,9.54v18.69H1008V569.23c0-3.34-.64-6.61-3.86-6.61-1.84,0-3.62,1.55-4.13,4.48a10.39,10.39,0,0,0-.24,2.53v17.48h-4.42Z"/><path class="cls-20" d="M1013.9,595.1a6,6,0,0,0,3.74-2.18c1-1.5,1.32-3.57,1.32-8.86V559.28h4.43v26.05c0,5.86-.86,8.56-2.82,10.63a9.73,9.73,0,0,1-6.09,2.65Zm9.89-43a2.63,2.63,0,1,1-5.23,0,2.66,2.66,0,0,1,2.64-2.87A2.59,2.59,0,0,1,1023.79,552.09Z"/><path class="cls-20" d="M1046.5,573.19c0,10.76-4.94,14.38-9.25,14.38-5,0-9-4.54-9-14.32,0-10.12,4.54-14.37,9.31-14.37C1042.54,558.88,1046.5,563.54,1046.5,573.19Zm-13.85,0c0,4.61.8,10.87,4.83,10.87,3.79,0,4.6-6.49,4.6-10.87s-.81-10.8-4.72-10.8S1032.65,568.94,1032.65,573.19Z"/><path class="cls-20" d="M1068.12,579.52c0,3.05.18,5.52.23,7.59h-3.85l-.34-2.93H1064a7.11,7.11,0,0,1-5.92,3.39c-4.83,0-6.79-3.79-6.79-10.7V559.28h4.43v17c0,4.37.69,7.59,3.74,7.59,2.59,0,3.74-2.41,4-3.68a11.66,11.66,0,0,0,.23-2.53V559.28h4.42Z"/><path class="cls-20" d="M1074.28,566.47c0-2.36-.18-5.12-.23-7.19h4l.23,4.43h.12c.92-2.65,3.28-4.83,5.86-4.83a4.4,4.4,0,0,1,.92.06v4.48h-.92c-2.81,0-4.88,2.59-5.34,5.75a16.26,16.26,0,0,0-.18,2.53v15.41h-4.42Z"/><path class="cls-10" d="M1132.33,967.87c15.63,27.66,35.46,38.44,35.46,38.44l82.82.58S1120.4,946.77,1132.33,967.87Z"/><path class="cls-21" d="M1194.43,1181.46a7.66,7.66,0,0,1,1.31,8.2l0,0c-2,5.45-8.58,11.5-16.21,17.53-1,.78-1.84,1.48-2.59,2.13l-.59.52-.45.4c-7.11,6.46-4.46,8-17.25,21.11-14.59,15-24.56,15.16-27.39,13.77-2.39-1.19,2.54-9.14,8-18.08l.79-1.31c.73-1.19,1.45-2.4,2.18-3.59,6.4-10.76,4.81-15.85,3.43-32-1.13-13.08-19.82-73.17-19.82-73.17l27.78-4.58s8,47.8,17.17,55.22c4.9,4,10.41,4,15.12,7,.34.2.66.41,1,.63A36.25,36.25,0,0,1,1194.43,1181.46Z"/><path class="cls-10" d="M1194.43,1181.46a7.66,7.66,0,0,1,1.31,8.2l0,0c-2.46,5.44-8.86,11.46-16.23,17.47-1,.79-1.82,1.52-2.57,2.19l-.59.52-.45.4c-7.11,6.46-4.46,8-17.25,21.11-14.59,15-24.56,15.16-27.39,13.77-2.39-1.19,2.54-9.14,8-18.08a61.82,61.82,0,0,0,25.94-18.84c8.8-11.07,14.72-25.32,20.71-33.56.34.2.66.41,1,.63A36.25,36.25,0,0,1,1194.43,1181.46Z"/><path class="cls-21" d="M970.79,1162.55c-1.77,8.56-14,7-27.59,3.61s-10.4.56-29.8-1.73-25.23-9.57-25.8-12.46c-.52-2.56,9.08-3.4,19.38-4.51l3.9-.44c11.63-1.37,20.19-8.81,30.78-14.89,10-5.76,25.12-29.42,25.12-29.42l26.62,2.3s-14.13,21.12-19.6,30.31c-3.21,5.4-3.09,12.58-2.74,18.13A33.86,33.86,0,0,1,970.79,1162.55Z"/><path class="cls-10" d="M943.2,1166.16c-13.62-3.43-10.4.56-29.8-1.73s-25.23-9.57-25.8-12.46c-.52-2.56,9.08-3.4,19.38-4.51l.1.2a54.8,54.8,0,0,0,27.74,8.84c13.17.41,27.15-3.27,36.24-3a33.86,33.86,0,0,1-.27,9.1C969,1171.11,956.82,1169.59,943.2,1166.16Z"/><path class="cls-10" d="M1074,993l24.42,67.15,31.88,87.68a52.5,52.5,0,0,0,17.27-1.45c7.79-2.19,16.75-8,16.75-8s-8.36-94-24.81-148c-4.21-13.87-9-25.09-14.26-31.43C1099.4,928,1074,993,1074,993Z"/><path class="cls-11" d="M1100.09,886.83c16.34-5.14,62.8,1.94,109.46,11.42l9.89-16.07,101-7.17s32.77,74.08,14.21,121c-2.73,6.9-9.38,9.77-18.45,9.85l0,0s-60.22,1-79.72.9c-50.19-.35-106-35.24-113.2-36.74-11.85-2.46-16.76,21.23-28.8,46.06s-112.28,109.53-112.28,109.53-15.32,0-21.63-2.37c-6.78-2.6-9.25-5.93-9.25-5.93S1063.23,898.44,1100.09,886.83Z"/><path class="cls-10" d="M1221,743.22c35.8,20,108.41,61.57,108.79,61.3,0,0,26.72,10.29,42,.3,25.46-16.65,39.36-61.83-6.7-101.13-23-19.6-39.35-24.44-41.62-55.49-1.24-16.85-23.86-72.58-62.14-67.71a58.72,58.72,0,0,1-9.64.57,35.77,35.77,0,0,0-19.44,4.87C1210.52,598.66,1167.2,735.18,1221,743.22Z"/><path class="cls-21" d="M1251.25,726.59c-.16.1,17.64,6.31,29.6,1.12,11.26-4.88,19.89-23.29,19.72-23.3-5.1-.27-10.67-4.77-14.78-34.08l-2.18.76L1247,684s2.57,11.75,4.2,22.93C1252.55,716.29,1253.26,725.28,1251.25,726.59Z"/><path class="cls-22" d="M1247,684s1.56,8.23,3.73,20c21-3.63,29.87-21.56,32.91-32.89Z"/><path class="cls-21" d="M1241.45,695.58s50-6.35,45.61-37.46-1-52.88-33.12-50.14-36.64,15.5-37.68,26.25S1228.31,696.44,1241.45,695.58Z"/><path class="cls-10" d="M1218.2,617.21S1250,645,1271.77,647.39s30-4.55,30-4.55a85,85,0,0,1-20.36-28,15.33,15.33,0,0,0-12.56-9.11C1253.36,604.28,1223.9,603.46,1218.2,617.21Z"/><path class="cls-10" d="M1238.22,614.88s-10.78,10.27-14.2,17.93c-3.31,7.39-4.41,25.11-1.87,32.16,0,0-16.45-32.56-6.9-48.25C1225.39,600.08,1238.22,614.88,1238.22,614.88Z"/><path class="cls-23" d="M1208.63,800c.8,101.23-.15,80.07,10.85,89.75,2.65,2.33,10.14,3.76,20,4.48,31,2.28,85.62-2.44,87.73-8.17,7.3-19.79,2.29-26,8.48-56.33.64-3.23,1.44-6.72,2.37-10.53,5.13-20.83,10-27.9-7.41-61.55-15.81-30.48-32.28-55.25-33.78-54.37-42.45,24.8-45.71,3.68-45.71,3.68S1208.23,750.57,1208.63,800Z"/><path class="cls-11" d="M1098.45,1060.17l31.88,87.68a52.5,52.5,0,0,0,17.27-1.45c7.79-2.19,16.75-8,16.75-8s-8.36-94-24.81-148Z"/><path class="cls-23" d="M1251.17,706.91s-43.55,7.06-48.79,25.75-36.07,128.58-36.07,128.58,22.08,4.13,32.37-6,36.21-94.52,36.21-94.52Z"/><path class="cls-24" d="M1239.49,894.18c31,2.28,85.62-2.44,87.73-8.17,7.3-19.79,2.29-26,8.48-56.33L1321,787.42s2.15,47-11.78,59.2-56.85,23.44-63.65,33.7C1242.31,885.25,1240.14,890.2,1239.49,894.18Z"/><path class="cls-21" d="M1275.19,874.69s-30.57-7-35.53-4.35-17.11,12.5-18.64,15.93,11-2.54,15.09-3.6c2.64-.69,9.56,1.77,13,2.94,14.42,4.92,23.29,2.5,23.29,2.5Z"/><path class="cls-23" d="M1296.91,703.21S1338,706,1352.1,726c19.83,28.09,58.74,147.46,35.85,163.18-25.78,17.71-116.78,3.86-116.78,3.86s-2.93-14.19,1.33-21,72.89-17.41,76.07-20.55-39.1-62-39-71.46S1296.91,703.21,1296.91,703.21Z"/><path class="cls-21" d="M1238.12,878.85s-6.48,8.23-8.59,9.21a6.27,6.27,0,0,1-3.47.71l4.38-7.75Z"/><path class="cls-21" d="M1239.66,870.34l-18.72,8.93a3.33,3.33,0,0,0,3.08,1.21c2.3-.08,8.11-2.16,8.11-2.16Z"/><polygon class="cls-12" points="1233.52 901.41 1085.97 900.37 1042.36 789.68 1189.69 790.72 1233.52 901.41"/><polygon class="cls-18" points="1084.27 896.06 1279.11 897.44 1279.08 901.74 1085.97 900.37 1084.27 896.06"/><path class="cls-20" d="M1123.61,845.45c-1.09-3.89,1.18-7,5.06-7a10.07,10.07,0,0,1,9,7.09c1.08,3.89-1.18,7-5.06,7A10.06,10.06,0,0,1,1123.61,845.45Z"/><rect class="cls-25" x="516.4" y="1070.17" width="89.12" height="448.31" transform="translate(-733.47 1855.03) rotate(-89.99)"/><path class="cls-13" d="M336.79,1338.84l-65.89-28.18-38.32-16.4,39.22-16.76,65-27.78s8.68,21.7,8.81,42.1C345.82,1323.85,336.79,1338.84,336.79,1338.84Z"/><path class="cls-13" d="M837.24,1279.38v28.17a31.38,31.38,0,0,1-31.39,31.38H785.11V1249.8h22.56A29.57,29.57,0,0,1,837.24,1279.38Z"/><path class="cls-11" d="M271.8,1277.5c1.63,9,3.05,22.8-.9,33.16l-38.32-16.4Z"/><path class="cls-26" d="M433.18,785.68s8,34.85,31.44,34.85c20.06,0,47.59-45.36,47.59-45.36Z"/><path class="cls-11" d="M701.92,1300.33l-15,10.34s-72.33-77.1-89.79-151c-3.11-13.2-4.37-26.21-3-38.56,0,0-1-3.34-2.9-9.26-.08-.26-.16-.53-.25-.79-.8-2.6-1.77-5.65-2.85-9.11-3.51-11.17-8.33-26.45-13.81-43.85-12.64-40-41.56-130.32-53.91-167.88l88.79-32.13s10.09,23,24.58,85.51c2.23,8.16,4.47,17.18,6.56,27,2.37,11.13,4.58,23.3,6.42,36.46a560.75,560.75,0,0,1,5.32,74.85c0,11.18-.22,22.78-.89,34.75-.48,8.77.82,20.47,3.27,33.77C665.56,1211.28,701.92,1300.33,701.92,1300.33Z"/><path class="cls-10" d="M749.23,1337.48H677.44s-2.68-11.45,2-19.25c4.17-6.89,2.57-10.82-.52-16.52A28,28,0,0,0,691,1304c3.58-.21,7.36-1.83,10.68-3.76,3.09,3.52,16.32,18.52,20.45,21.49C726.86,1325.09,747.78,1323.89,749.23,1337.48Z"/><path class="cls-10" d="M646.68,1007.09l-55.78,104c-.8-2.6-1.77-5.65-2.85-9.11-3.51-11.17-8.33-26.45-13.81-43.85-12.64-40-41.56-130.32-53.91-167.88l88.79-32.13s10.09,23,24.58,85.51c2.23,8.16,4.47,17.18,6.56,27C642.63,981.76,644.84,993.93,646.68,1007.09Z"/><path class="cls-10" d="M518.88,1315s-5,12.19-.29,22.47h39s.81-9.27-13.36-20C533.55,1309.31,518.88,1315,518.88,1315Z"/><path class="cls-27" d="M561.38,521.26c0-1.94,1-22.9,32.87-24.76,0,0-15.63,2.25-18.17,9.2,0,0,10.46-8.77,19.22-6.24s14.23,17.63,14.4,22.64-4.27,21.26-9.75,22.77a16.84,16.84,0,0,1-6.68.17,74.38,74.38,0,0,1,4.46,7.54c13.35,25.8,1.84,56.19-9,53.63-7-1.64-11.17,10.4-11.17,10.4l-66.82-57.47S534.15,507.56,561.38,521.26Z"/><path class="cls-21" d="M519.37,695.88A81.13,81.13,0,0,0,547.73,708c43.72,10.1,60.47-26.85,66.77-52.21a37.72,37.72,0,0,0-14.82-4.55c-3.15-.37-6.48-.62-9.23-.76-4.91-3.76-12.22-19.15-13.84-43l-2.06.55-34.45,9.43s1.58,11,2.35,21.31c.6,8.1.69,15.84-.84,17.73-2.69.59-4.3,1-4.3,1l0,0A222.3,222.3,0,0,0,519.37,695.88Z"/><path class="cls-28" d="M540.1,617.38s1.58,10.94,2.35,21.3C562,636.73,571,618.14,574.55,608Z"/><path class="cls-21" d="M539.7,633.82s44.94-11.55,37.32-39.43-7-48.14-36-41.95-31.66,18.35-31.38,28.28S527.81,636.1,539.7,633.82Z"/><path class="cls-27" d="M506.74,564.86c4.61-10.28,10.34-9.88,14-8.16,20.76-20.16,42-4.61,42-4.61a55.21,55.21,0,0,0,26.05,26.66s-6.77,7.28-26.9,7.61c-6.14.1-12.39-2.57-18.11-6.33a108,108,0,0,0,24,17c-25.31-4.21-42.9-33-44.71-36-2,3.2-6,10-6.18,15.68-.28,7.71,2.73,22.59-1.67,23.26C515.15,600,499.82,580.28,506.74,564.86Z"/><path class="cls-21" d="M526.77,655.06s75.48-18.33,108.3,8.74l-16.4,228.74L471.05,856.88s4.16-14.47,32.46-53S519.5,709,526.77,655.06Z"/><path class="cls-11" d="M570.77,867.08s-.09.78-.24,2.25c-.07.64-.15,1.41-.25,2.3-.63,5.93-1.83,17.31-3.39,32.1-4,38.79-10.4,101.1-14.73,150.28-3.39,38.45-5.54,68.89-4.38,73.77,3.49,14.71,0,190.49,0,190.49-12.55,6-31.57,0-31.57,0s-33.42-158.41-28.74-180.42a75.84,75.84,0,0,0-3.13-40.82c-25.95-120.83-23.11-187.81-17.95-219.87a135,135,0,0,1,4.44-19.58,42.27,42.27,0,0,1,1.77-4.81C529.84,837.37,570.77,867.08,570.77,867.08Z"/><path class="cls-26" d="M645.24,729c-3.64,27.52-18.22,61.2-23.42,79.32,0,0,8.7,62.93.39,80.21a7.63,7.63,0,0,1-3.54,4C587.89,906,468,892.93,463,854.26c-1.84-14,45.66-63.47,48.42-69.47,1.15-2.48,2.38-10.52-3.19-27.18C500.3,782,456.73,775,456.73,775c5.11-8.75,17.85-69.28,32.08-96.6,10.69-20.54,39.24-23.52,39.24-23.52s11.89,18.85,40.63,16.18,34-20.27,34-20.27,25.49,3.39,33.34,9.73C637.38,661.56,650,693,645.24,729Z"/><path class="cls-29" d="M621.82,808.36s8.7,62.93.39,80.21c-22.42-11.26-40.1-41.71-36-75.63,3-25.07,7.5-30.79,20.92-45.14,9.85-10.54,32.64-11.13,30.86-6.12C632.65,776.62,624.57,798.79,621.82,808.36Z"/><polygon class="cls-30" points="528.21 733.94 579.6 816.4 492.15 816.4 443.18 735.73 528.21 733.94"/><polygon class="cls-31" points="576.93 812.26 577.82 809.38 529.18 731.35 528.21 733.94 576.93 812.26"/><polygon class="cls-13" points="529.18 731.35 446.8 733.7 443.18 735.73 528.21 733.94 529.18 731.35"/><polygon class="cls-32" points="443.18 735.73 396.97 710.71 450.84 795.31 492.15 816.4 443.18 735.73"/><path class="cls-21" d="M687.75,793.51c-4.94,2.26-17.65,17.23-22.19,18.75-20.39,6.82-107.18-11.34-107.18-11.34l2.69-15.2s85.18,2.27,94.55-.24c1.76-.47,11-14.87,14.5-16.94Z"/><path class="cls-21" d="M561.08,785.72s-10.28-8.36-17.22-6.47S526.71,789.92,522.92,792s-14.1,9.51-8.88,14,21.48.63,27.92-2.81,16.43-2.27,16.43-2.27Z"/><path class="cls-21" d="M545.83,779s-12.48-1.49-15.89-1.42-2.49.82-.61,3.46,8.39,3.66,8.69,4.58S545.83,779,545.83,779Z"/><path class="cls-26" d="M602.68,650.74s37,4.39,47.21,20.27c12.89,20.07,43.3,100,42.32,120.16,0,0-22.24,37.85-98.49,31.79,0,0-7.94-28,8.1-37.28,0,0,39.17-7,43.68-10.94l-31.93-58Z"/><path class="cls-21" d="M455,765.87c-1.14-4.66-11.31-1.75-14.74.93a14.31,14.31,0,0,0-2.61,3.07c-.1-.78-.2-1.53-.25-2.11-.19-2.19-2.74-6.12-3.38-3.18s-1.67,15.28-1.67,15.28c-.13,9.95,6.26,14,10.37,10.81S456.17,770.53,455,765.87Z"/></g></g></svg>