<svg xmlns="http://www.w3.org/2000/svg" viewBox="0 0 1688.91 1385.72"><defs><style>.cls-1{fill:#e7f3fe;}.cls-2{fill:#9ec8ff;}.cls-3{fill:#fff;}.cls-4{fill:#99bbeb;}.cls-5{fill:#7a4e34;}.cls-6{fill:#d54a41;}.cls-7{fill:#f09959;}.cls-8{fill:#e38540;}</style></defs><g id="Capa_2" data-name="Capa 2"><g id="Слой_1" data-name="Слой 1"><path class="cls-1" d="M245.05,59.64c230.81-136.07,465.4-15.77,624.5,246.23s493-180.84,670.08,80.74c120.85,178.52,65.5,637.48-100.21,836.27C1214.19,1493.08,529.22,1356,381.05,1310c-170.7-53-295.5-213.71-346.2-408.79C-87.33,431.16,143.05,119.77,245.05,59.64Z"/><path class="cls-2" d="M1477.21,332.92a307,307,0,0,0,1.92-34.23c0-6.1-.2-12.16-.55-18.18L1422,262.21a248.64,248.64,0,0,0-20-67.75l37.49-46.14a304.33,304.33,0,0,0-29.7-43.18l-56.56,18.45a251.44,251.44,0,0,0-56-43l3.22-59.42a304,304,0,0,0-49.37-17.5l-34.93,48.2a251.69,251.69,0,0,0-70.6-1.85L1113.23,0A301.9,301.9,0,0,0,1063,14.85l.07,59.51a250.87,250.87,0,0,0-58.19,40L949.4,93a306.58,306.58,0,0,0-32,41.55l35,48.07a248.63,248.63,0,0,0-23.61,66.6l-57.43,15.28a307,307,0,0,0-1.92,34.22c0,6.11.2,12.17.55,18.19l56.55,18.29a248.48,248.48,0,0,0,20,67.76l-37.5,46.14a305.73,305.73,0,0,0,29.7,43.18l56.56-18.45a251.33,251.33,0,0,0,56,43l-3.22,59.42a301.94,301.94,0,0,0,49.38,17.5l34.92-48.19a251.69,251.69,0,0,0,70.6,1.85l32.34,50a302.85,302.85,0,0,0,50.23-14.85l-.07-59.51a250.7,250.7,0,0,0,58.19-40l55.48,21.41a305.87,305.87,0,0,0,32-41.54l-35-48.07a248.63,248.63,0,0,0,23.61-66.6Zm-302.89,85.33a119.56,119.56,0,1,1,119.55-119.56A119.56,119.56,0,0,1,1174.32,418.25Z"/><path class="cls-3" d="M1337.38,435.05a4.47,4.47,0,0,1-3.43-7.33,202.27,202.27,0,0,0,35.63-194.82A4.47,4.47,0,1,1,1378,230a211.2,211.2,0,0,1-37.21,203.45A4.48,4.48,0,0,1,1337.38,435.05Z"/><path class="cls-3" d="M1320.07,152.87a4.46,4.46,0,0,1-3.06-1.22,200.72,200.72,0,0,0-69.52-42.83,4.47,4.47,0,0,1,3-8.4,209.58,209.58,0,0,1,72.59,44.72,4.47,4.47,0,0,1-3.06,7.73Z"/><path class="cls-3" d="M1127.94,103a4.47,4.47,0,0,1-1.09-8.81,212.1,212.1,0,0,1,51.77-6.4,4.47,4.47,0,1,1,0,8.94A202.62,202.62,0,0,0,1129,102.9,4.67,4.67,0,0,1,1127.94,103Z"/><path class="cls-2" d="M516.3,1089.92a213.22,213.22,0,0,0,1.33-23.7c0-4.23-.14-8.43-.38-12.6L478.08,1041A172.25,172.25,0,0,0,464.21,994l26-32a210.87,210.87,0,0,0-20.57-29.91l-39.18,12.78a173.75,173.75,0,0,0-38.78-29.8L393.88,874a208.94,208.94,0,0,0-34.2-12.12l-24.19,33.38a173.65,173.65,0,0,0-48.9-1.28L264.2,859.33a209.82,209.82,0,0,0-34.8,10.28l0,41.22a173.7,173.7,0,0,0-40.3,27.73l-38.43-14.83a212.11,212.11,0,0,0-22.14,28.77l24.26,33.3a172,172,0,0,0-16.35,46.13l-39.78,10.58a213.39,213.39,0,0,0-1.34,23.71c0,4.23.14,8.42.39,12.59l39.17,12.67a171.87,171.87,0,0,0,13.87,46.94l-26,32a211.67,211.67,0,0,0,20.58,29.9l39.17-12.78a174,174,0,0,0,38.78,29.81l-2.22,41.16a209.16,209.16,0,0,0,34.19,12.12l24.19-33.38a174.75,174.75,0,0,0,48.91,1.28l22.39,34.62a209.85,209.85,0,0,0,34.8-10.29l-.06-41.22a173.72,173.72,0,0,0,40.31-27.72l38.43,14.83a212,212,0,0,0,22.13-28.78l-24.25-33.29a172,172,0,0,0,16.35-46.13ZM306.5,1149a82.81,82.81,0,1,1,82.81-82.81A82.82,82.82,0,0,1,306.5,1149Z"/><path class="cls-3" d="M419.45,1162a4.48,4.48,0,0,1-3.44-7.33,138.74,138.74,0,0,0,24.45-133.61,4.47,4.47,0,0,1,8.45-2.91,147.68,147.68,0,0,1-26,142.24A4.48,4.48,0,0,1,419.45,1162Z"/><path class="cls-3" d="M407.46,966.59a4.46,4.46,0,0,1-3.06-1.22A137.77,137.77,0,0,0,356.72,936a4.47,4.47,0,1,1,3-8.4,146.49,146.49,0,0,1,50.75,31.27,4.47,4.47,0,0,1-3.06,7.73Z"/><path class="cls-3" d="M274.38,932.07a4.47,4.47,0,0,1-1.09-8.8,148,148,0,0,1,36.19-4.48,4.47,4.47,0,0,1,0,8.94,139,139,0,0,0-34,4.21A4.65,4.65,0,0,1,274.38,932.07Z"/><path class="cls-2" d="M1659.75,560.6c0-2.31-.07-4.6-.19-6.88l29.35-23.56a156.39,156.39,0,0,0-10.66-33.72l-37.9-2.86a126.07,126.07,0,0,0-32.8-34.81l-.13-37.76a155.89,155.89,0,0,0-33.6-13l-25.89,27.87a127.23,127.23,0,0,0-13.6-.74,125.8,125.8,0,0,0-33,4.39l-29.7-23.52a157.19,157.19,0,0,0-31.41,18.22l5.61,37.43a125.73,125.73,0,0,0-26.45,38.61l-36.94,8.56a156.63,156.63,0,0,0-5.46,35.62l32.54,18.81a124.44,124.44,0,0,0,13.92,46l-16.3,34.13a158.66,158.66,0,0,0,23.95,26.05L1466,665.79A124.51,124.51,0,0,0,1512,684l16.45,33.87c2,.07,3.93.12,5.9.12a158.63,158.63,0,0,0,28.86-2.65l11.09-35.86a125.22,125.22,0,0,0,43.29-25.14l36.68,8.24a157.63,157.63,0,0,0,19.53-28.85l-21.25-31.22A125.3,125.3,0,0,0,1659.75,560.6ZM1533,615.86A52.83,52.83,0,1,1,1585.78,563,52.82,52.82,0,0,1,1533,615.86Z"/><rect class="cls-4" x="525.37" y="40.43" width="737.76" height="1209.23"/><rect class="cls-3" x="564.01" y="65.07" width="674.87" height="1138.5"/><path class="cls-5" d="M797.92,310.73c0,54.16,32.61,141.55,109.54,138.74s93.94-86.1,96.92-109.61S797.92,310.73,797.92,310.73Z"/><path class="cls-6" d="M765.86,521.61c25.4-54.65,68.4-72.15,139-72.15,84.06,0,127.71,30.45,140.08,74.79C894.4,526.31,765.86,521.61,765.86,521.61Z"/><path class="cls-7" d="M918.8,493.08c-8,11.88-13.95,12.38-22.68,0-7-9.83-20.62-32.18-20.62-43.53V336.37a20.68,20.68,0,0,1,20.62-20.62H918.8a20.68,20.68,0,0,1,20.62,20.62V449.55C939.42,460.9,926,482.43,918.8,493.08Z"/><path class="cls-8" d="M918.8,315.75H896.12a20.68,20.68,0,0,0-20.62,20.62v101c25.47,8.1,48.71-8,63.92-26.17V336.37A20.68,20.68,0,0,0,918.8,315.75Z"/><ellipse class="cls-7" cx="907.46" cy="316.89" rx="68.56" ry="93.42"/><path class="cls-5" d="M945.15,245.88c-8.15,28.73-26,28.4-50.9,37.83s-36.8,18.93-44.94,37.31c-10.39,23.44,4.71,91.77,4.71,91.77s-63-47.17-55.75-121.36,51-102.92,92.2-102.92,56.82,25.09,56.82,25.09,21.93.09,42.67,24.66c27.88,33,19.3,113.21,0,141.94s-32.16,37.74-31.73,36.45,18-67.26,8.57-108.06S945.15,245.88,945.15,245.88Z"/><path class="cls-3" d="M933.23,367.56s-11.54,15-25.77,15-25.78-15-25.78-15Z"/><path class="cls-4" d="M989.08,669.81H815.93a20.13,20.13,0,0,1,0-40.26H989.08a20.13,20.13,0,0,1,0,40.26Z"/><path class="cls-4" d="M1020.78,731.67H784.23a20.14,20.14,0,1,1,0-40.27h236.55a20.14,20.14,0,0,1,0,40.27Z"/><path class="cls-4" d="M1190.21,954.14H614.8a11.69,11.69,0,1,1,0-23.37h575.41a11.69,11.69,0,0,1,0,23.37Z"/><path class="cls-4" d="M1190.21,1008.44H614.8a11.69,11.69,0,1,1,0-23.37h575.41a11.69,11.69,0,0,1,0,23.37Z"/><path class="cls-4" d="M1190.21,1062.73H614.8a11.68,11.68,0,1,1,0-23.36h575.41a11.68,11.68,0,1,1,0,23.36Z"/><path class="cls-4" d="M1109.73,535H695.28a20.89,20.89,0,0,1-20.86-20.86v-382a20.88,20.88,0,0,1,20.86-20.85h414.45a20.88,20.88,0,0,1,20.86,20.85v382A20.89,20.89,0,0,1,1109.73,535ZM695.28,128.32a3.94,3.94,0,0,0-3.89,3.88v382a3.94,3.94,0,0,0,3.89,3.89h414.45a3.94,3.94,0,0,0,3.89-3.89v-382a3.94,3.94,0,0,0-3.89-3.88Z"/><polygon class="cls-4" points="755.08 784.2 767.08 808.51 793.91 812.41 774.5 831.33 779.08 858.05 755.08 845.44 731.08 858.05 735.67 831.33 716.25 812.41 743.08 808.51 755.08 784.2"/><polygon class="cls-4" points="853.36 784.2 865.36 808.51 892.19 812.41 872.78 831.33 877.36 858.05 853.36 845.44 829.36 858.05 833.95 831.33 814.53 812.41 841.36 808.51 853.36 784.2"/><polygon class="cls-4" points="951.64 784.2 963.64 808.51 990.47 812.41 971.06 831.33 975.64 858.05 951.64 845.44 927.64 858.05 932.23 831.33 912.81 812.41 939.64 808.51 951.64 784.2"/><polygon class="cls-4" points="1049.92 784.2 1061.92 808.51 1088.75 812.41 1069.34 831.33 1073.92 858.05 1049.92 845.44 1025.92 858.05 1030.51 831.33 1011.09 812.41 1037.92 808.51 1049.92 784.2"/></g></g></svg>