<svg xmlns="http://www.w3.org/2000/svg" viewBox="0 0 1757.86 1428.03"><defs><style>.cls-1{fill:#e7f3fe;}.cls-2{fill:#cce2ff;}.cls-3{fill:#2e5b9a;}.cls-4{fill:#f09959;}.cls-5{fill:#6791c9;}.cls-6{fill:#75a1de;}.cls-7{fill:#f37168;}.cls-8{fill:#d54a41;}.cls-9{fill:#e38540;}.cls-10{fill:#f2e5de;}.cls-11{fill:#303c60;}.cls-12{fill:#74b570;}.cls-13{fill:#9cd499;}.cls-14{fill:#fff;}</style></defs><g id="Capa_2" data-name="Capa 2"><g id="Слой_1" data-name="Слой 1"><path class="cls-1" d="M245.05,56.52c230.81-136.06,465.4-15.77,624.5,246.24s493-180.84,670.08,80.74c120.85,178.51,65.5,637.48-100.21,836.27-225.23,270.2-910.2,133.09-1058.37,87.11-170.7-53-295.5-213.71-346.2-408.79C-87.33,428,143.05,116.65,245.05,56.52Z"/><path class="cls-2" d="M1534.79,1319.85c-124.1-10.17-546.27,7.06-674.67,13.77s-277.43-8.86-354.84-31.76-524.92,2-504.61,63.53,199.38,27.54,402.45,52.29,659.79-3.09,762.81,0,197.49-6.19,330.25-18.56S1606.72,1325.74,1534.79,1319.85Z"/><rect class="cls-3" x="116.63" y="814.81" width="778.55" height="29.01" rx="8.29"/><path class="cls-4" d="M1083.09,426c10.32,36.39-14.89,73.9-42.67,81.78s-47.6-16.85-57.92-53.25,3.82-72.29,31.6-80.17S1072.76,389.6,1083.09,426Z"/><path class="cls-4" d="M927.35,1131.3s71.19,110.57,80.8,115.37,33.65,6,24.64,24-12.62,88.94-21,92.54-80.52,12-69.71,0,17.47-6,22.93-27.64,13.13-62.5,2.91-70.91-72.71-84.13-72.71-84.13Z"/><path class="cls-4" d="M569.05,1178.78s-86.54,142.63-102.56,155.45-68.91,32-25.64,35.25,64.1-14.42,91.34-22.43,60.9-12.82,48.08-33.66-7.5-66.31,20.14-95.15S569.05,1178.78,569.05,1178.78Z"/><path class="cls-5" d="M1010.66,848.05s-214.22-5.6-299.16,64.1c-49.68,75.32-169.86,297.55-179.2,322,6.41,6.41,42.47,18,58.5,16.38,47.27-56.37,109.76-105.1,134.61-149.32,30.62-54.49,40.06-81.73,89.74-86.54S977,993.88,1010.66,993.88,1010.66,848.05,1010.66,848.05Z"/><polygon class="cls-3" points="1197.47 1369.87 1186.24 1369.87 1105.71 1033.91 1130.42 1033.91 1197.47 1369.87"/><polygon class="cls-3" points="861.09 1369.87 872.32 1369.87 964.72 1022.03 940.01 1022.03 861.09 1369.87"/><path class="cls-6" d="M1132.7,833.38l-124.55,21.49S842.65,856.4,767,870.49c-68.83,12.82-79,91,0,198.71,44.86,61.17,82.79,110,160.36,165,19.73-14.49,27.28-20,32.73-54.82-5.61-7.7-20.15-55.87-24.66-65.3-42.9-89.68-100.16-122.29-101-131.12,9.62-15.62,254.69,81.44,303.41,24.34C1184.39,952.78,1132.7,833.38,1132.7,833.38Z"/><path class="cls-7" d="M1137.87,551.42c-32.8-4.61-66.21,1.63-97.45,24.25-27.3,27.83-58.2,73.72-56.3,149.43,2.4,96.14-14.88,102.32,3.15,128.76,75.18,31,203.78,164.45,173.5,21.43-21.93-103.55,48.09-180.74-8.4-295.61C1147.78,570.33,1142,561.26,1137.87,551.42Z"/><path class="cls-8" d="M984.1,761.28c-1.47,50.12-8.54,64.89-3.13,80.61,30.65,3.13,86.72,15.39,100.73,35,16,22.43,32,25.64,24.57,9.08s-27.24-40.07,3.21-120.73,44.87-135.14,15-191.23Z"/><path class="cls-4" d="M1137.87,551.42c-20.2-47.82-25.16-101.54-25.16-101.54l-52.88,15.62s30.05,67.3,1.2,91.34a274.42,274.42,0,0,0-20.61,18.83C1071.66,553.05,1105.07,546.81,1137.87,551.42Z"/><path class="cls-9" d="M1114.31,462.61c-3.14-2.79-7.06-6.27-11.17-9.9L1060,465.45l-.09.23c1,2.39,12,28,13.48,52.68,12.85-7.8,26.93-20.51,43-42.72C1115.53,470.71,1114.84,466.32,1114.31,462.61Z"/><path class="cls-4" d="M1100.69,566.46c-54.46,19-48.42,76.42-98.55,161-25.94,43.79-50,43.14-50,43.14a1160,1160,0,0,1-134.43-8.51c-46.08-5.63-49,8.09-16.95,19.54,64.63,23.11,131.71,48,185.79,42s146.58-144,151.35-179.92C1144.47,594.05,1128.12,556.86,1100.69,566.46Z"/><path class="cls-3" d="M1072.65,1047.91q-5.09,0-10.42-.13c-44.38-1.1-74.6-7.24-98.88-12.17-28.35-5.76-44-8.93-62.13-.25a14,14,0,0,1-12.08-25.26c26.64-12.73,48.93-8.2,79.79-1.93,23.2,4.72,52.07,10.58,94,11.62,46.91,1.17,75.52-5.79,90-21.87,12.92-14.33,16.7-38.4,11.9-75.75-1.65-12.79-3.29-23.42-4.74-32.8-4.1-26.47-6.8-44-3.45-71,3.11-25.1,11.42-58.54,30.67-123.37a14,14,0,0,1,26.84,8c-35.87,120.82-34.05,132.58-26.39,182.11,1.48,9.54,3.15,20.37,4.84,33.51,5.92,46.06-.08,77.22-18.87,98.07C1154.39,1038.14,1123,1047.91,1072.65,1047.91Z"/><path class="cls-8" d="M574.93,1299c-57.42,28.08-88.32,44.17-106.73,42.64-4.34-.36-7.95-.81-11-1.28-20.47,12.11-53.16,26.41-16.38,29.13,43.27,3.21,64.1-14.42,91.34-22.43s60.9-12.82,48.08-33.66A43.84,43.84,0,0,1,574.93,1299Z"/><path class="cls-8" d="M1014.41,1249c-1.4,45.46-7.65,90.51-35.45,99a46.71,46.71,0,0,1-20,1.79c-4.37,5.4-9.71,5.46-16.87,13.42-10.81,12,61.3,3.61,69.71,0s12-74.51,21-92.54C1040.2,1255.9,1025.3,1252.45,1014.41,1249Z"/><path class="cls-6" d="M793.24,818.78H610.83a14,14,0,0,1-12.7-8.1L524.41,652a14,14,0,0,1,25.4-11.8l70,150.55H793.24a14,14,0,0,1,0,28Z"/><path class="cls-4" d="M831.4,763.72c-36.85-.53-73.41-22.5-91.57-19.3s-77.46,44.34-70,45.94,54.49-22.76,56.09-23.13,11.75,16.87,36.86,23.21.18-18.82,78,4.68C891.4,810.41,831.4,763.72,831.4,763.72Z"/><path class="cls-10" d="M1132.45,507.78l5.42,43.64s-47.69,2.83-71.43,16.19-58.76,51.94-58.76,51.94l28.62-49.27,4.12-31.52Z"/><path class="cls-10" d="M1112.15,561.2c-35.43-6.64-51.81,25.1-74.78,76.92s-62.18,114.75-70,122.86S836,761,836,761s-3.74,35.79,0,40.06,25.11,3.74,25.11,3.74,8.54,6.83,16.56,12.23S953.5,832.56,985,831s60.36-4.28,64.63-9.08,90.28-137.29,95.62-184.83S1130.23,564.59,1112.15,561.2Z"/><path class="cls-11" d="M1007.68,343.25c-67,3.21-56.49,104-56.49,104s17.4,5.38,53.86-.63c-2.81-10.82-1.6-38.46-1.6-38.46s4.23,22.43,9.61,36c7.71,3.54,16.43.4,31.25-3.18,7.61,32,29.12,45.56,43.85,50.19,16.27,5.12,33.5,11.22,52.73,1.6s8.65-107.9-1.56-127.66c-15.33-29.67-40.8-56.23-84.87-42.2C1032.36,330,1007.68,343.25,1007.68,343.25Z"/><path class="cls-11" d="M1124.2,463l27.39,40s-30.36,75.86,57.94,110.22c69.15,26.92,61,74.34,29.75,122s18.7,89.34,18.7,89.34,7.62-52.83,74.8-62.8c91.61-13.6,117.56-136.6,49.13-198.1-56.62-50.89-73.85-8.74-112.18-54.41s-110.68-14.82-110.68-14.82l-26.52-38.68Z"/><path class="cls-11" d="M1413.42,687.56a2.42,2.42,0,0,1-2.13-3.6c23-42.1,4.24-93.1-5.22-106.92-1-1.46-2-2.95-3-4.52-9.28-14.5-20.84-32.54-82.53-43.65-14.85-2.67-26.88-11.5-39.62-20.85-26.3-19.31-56.11-41.2-120.89-11.38a2.44,2.44,0,0,1-2-4.43c67.38-31,98.43-8.22,125.82,11.88,12.26,9,23.85,17.52,37.6,20,63.77,11.48,76,30.52,85.77,45.81,1,1.54,1.91,3,2.87,4.4,9.91,14.48,29.6,67.91,5.47,112A2.42,2.42,0,0,1,1413.42,687.56Z"/><path class="cls-11" d="M1109.57,504a96.9,96.9,0,0,1-14.23-1.14c-23.44-3.52-54.89-16.84-57.36-91.64a2.44,2.44,0,1,1,4.87-.16c1,30.83,7.14,53.64,18.19,67.8,8.39,10.76,19.52,16.85,35,19.18,21.69,3.24,36.07-.76,42.74-11.91a2.44,2.44,0,0,1,4.18,2.5C1136.87,498.82,1125.66,504,1109.57,504Z"/><path class="cls-12" d="M1515.11,918c31.15,28.44,17.61,56.87-5.41,109.68s-27.09,247.81-27.09,247.81l19-2.71s-2.71-200.41,23-254.57,36.56-81.25,59.58-63.65S1515.11,918,1515.11,918Z"/><path class="cls-13" d="M1498,881.2c3.79-16.85,26.25-35.09,56.29-50.55-4.47,24.85-18.79,65.49-4,73.83,20,11.24,2-45.5,9.66-76.69a371.22,371.22,0,0,1,93.38-30.63l-.12.34c-17.61,44.69-40.63,62.29-31.15,69.06,7.13,5.1,30.36-46.52,61-73,23-1.23,42.5,1.89,54,11,17.81,14.1,29.77,26.61,11.86,69.54-10.24,7.32-23.49,12.56-38.89,14.1-40.62,4.06-59.58,5.41-31.15,19,13.93,6.63,37.27-.38,56.2-4.65-6.14,11.32-13.69,24.12-22.86,38.7a144.68,144.68,0,0,1-19,24.23c-13.1,2.51-24.51,2.53-30.56-.06-19-8.12-67.7-33.85-79.89-23-11.93,10.61,90.28,17.32,83.2,44.27-49.54,28.54-106.23,15-116.25-11.25C1536.31,940.21,1486.62,931.93,1498,881.2Z"/><path class="cls-12" d="M1600.42,1073.74c-54.16-40.62-109.68-2.7-138.12,40.63s-8.12,140.83-8.12,140.83,10.83,0,10.83-4.06-29.79-115.11,40.62-165.21c44.06-31.34,75.84-16.25,79.9-1.35s-17.6,42-17.6,42Z"/><path class="cls-13" d="M1475.84,990.24c54.17,0,71.77,84,56.88,132.7s-35.21,139.48-35.21,139.48L1484,1248.88s51.46-127.29,39.27-184.16-42-66.36-47.4-66.36S1475.84,990.24,1475.84,990.24Z"/><path class="cls-12" d="M1521.27,1123.32a39.36,39.36,0,0,1,14.26-12,107.49,107.49,0,0,1-2.81,11.6c-6.79,22.22-14.7,53.14-21.3,80.23-.6-3.47-1.53-8.82-3-17.07-.34-1.94-.61-4.06-.79-6.3A523.82,523.82,0,0,0,1521.27,1123.32Z"/><path class="cls-13" d="M1536.08,1123.73c102.92-43.33,48.7-102.8,139.42-63.53,6.39,2.77,14.18,9.75,22,19.36a67.62,67.62,0,0,1-28.75,2.31c-27.08-4.06-17.6,17.6,27.09,23a100.45,100.45,0,0,1,20.94,4.42c21.28,40.89,30.88,94.69-14.17,113.39-8.88,3.68-19.85,5.79-32.07,6.58-13.9-11,3.4-75-18-66.16-20.57,8.47,6.45,54.81,2.75,66.48-20.31-.37-42.8-3.68-64.29-9-8.5-4.77-15-11.16-17-19.56-6.77-28.43,37.92-46,39.27-70.41,1.25-22.41-16.37,49.3-63.07,59.85C1507.93,1170.75,1488,1144,1536.08,1123.73Z"/><path class="cls-13" d="M1462.75,1047.11c10.84-23-17.6-28.43-16.25-10.83,1.2,15.6,1.34,53.52-14.66,63.84-27.59-3-65.13-14.11-93.51-31a11.53,11.53,0,0,1,1.2-7.06c12.18-24.38,90.72-44.69,66.35-52.81-19.41-6.47-53.43,31.72-80.84,51-16.46-12.49-27.49-27.38-27.49-44,0-22.5,27.33-48,62.68-60.14,15.91,1.61,30.69,10.3,53.77,23.39,34.1,19.32,26.22-11.92-6-30.46,27.83,1.44,55.58,13.33,76,41.74,0,0-1.94,12.14,10.91,30.93,35.06,51.24-5.4,81.16-53.77,79.21C1443.91,1087.33,1455.27,1063,1462.75,1047.11Z"/><path class="cls-12" d="M1597.17,1071.45c26.48,20.46,55.89,44.39,92,60.64s28.89,69.21,28.89,69.21,5.41-45.74-24.68-61.39-50-34.31-72.83-37.92-35.51-7.22-35.51-7.22,7.23-14.44,3-19.86S1597.17,1071.45,1597.17,1071.45Z"/><path class="cls-12" d="M1727.7,831.15C1630.8,857,1559.77,919,1546.53,934.07s-13.24,19.26-13.24,19.26l10.23,19.26,4.82-2.41s-7.83-16.25,12.64-37.31c35.29-36.33,78.24-65,107.73-77.64S1727.7,831.15,1727.7,831.15Z"/><path class="cls-6" d="M1460.22,1234.79h37a47.67,47.67,0,0,1,47.67,47.67v85.06a0,0,0,0,1,0,0H1412.55a0,0,0,0,1,0,0v-85.06A47.67,47.67,0,0,1,1460.22,1234.79Z" transform="translate(2957.46 2602.31) rotate(180)"/><rect class="cls-14" x="1412.55" y="1250" width="132.35" height="9.32"/><rect class="cls-14" x="1412.55" y="1266.99" width="132.35" height="5.48"/><polygon class="cls-3" points="193.03 1364.42 211.03 1364.42 281.06 829.11 241.45 829.11 193.03 1364.42"/><polygon class="cls-3" points="803.88 1364.42 785.88 1364.42 715.85 829.11 755.45 829.11 803.88 1364.42"/></g></g></svg>